<?xml version="1.0" encoding="UTF-8" standalone="no"?>
<!-- Generator: Adobe Illustrator 15.0.0, SVG Export Plug-In . SVG Version: 6.00 Build 0)  -->

<svg
   xmlns:dc="http://purl.org/dc/elements/1.1/"
   xmlns:cc="http://creativecommons.org/ns#"
   xmlns:rdf="http://www.w3.org/1999/02/22-rdf-syntax-ns#"
   xmlns:svg="http://www.w3.org/2000/svg"
   xmlns="http://www.w3.org/2000/svg"
   xmlns:xlink="http://www.w3.org/1999/xlink"
   xmlns:sodipodi="http://sodipodi.sourceforge.net/DTD/sodipodi-0.dtd"
   xmlns:inkscape="http://www.inkscape.org/namespaces/inkscape"
   version="1.1"
   id="Layer_1"
   x="0px"
   y="0px"
   width="120"
   height="220"
   viewBox="0 0 120 220"
   xml:space="preserve"
   inkscape:version="0.91 r13725"
   sodipodi:docname="flower.svg"><metadata
     id="metadata243"><rdf:RDF><cc:Work
         rdf:about=""><dc:format>image/svg+xml</dc:format><dc:type
           rdf:resource="http://purl.org/dc/dcmitype/StillImage" /><dc:title></dc:title></cc:Work></rdf:RDF></metadata><defs
     id="defs241" /><sodipodi:namedview
     pagecolor="#ffffff"
     bordercolor="#666666"
     borderopacity="1"
     objecttolerance="10"
     gridtolerance="10"
     guidetolerance="10"
     inkscape:pageopacity="0"
     inkscape:pageshadow="2"
     inkscape:window-width="976"
     inkscape:window-height="563"
     id="namedview239"
     showgrid="false"
     inkscape:zoom="0.2979798"
     inkscape:cx="306"
     inkscape:cy="396"
     inkscape:window-x="75"
     inkscape:window-y="44"
     inkscape:window-maximized="0"
     inkscape:current-layer="Layer_1" /><g
     id="g4371"
     transform="translate(-82.998627,500.49868)"
     style="fill:#cccccc"><g
       transform="matrix(0.4035345,0,0,0.4035345,25.707434,-558.45113)"
       id="g3"
       style="fill:#cccccc"><defs
         id="defs5"><path
           inkscape:connector-curvature="0"
           d="M 367.167,377.584 367.148,377.584 C 309.947,377.589 309.766,442.307 309.766,442.436 L 309.766,442.436 313.686,443.216 C 316.747,443.501 319.639,443.64 322.365,443.647 L 322.746,443.647 C 376.94,443.53 366.925,390.438 383.131,379.087 377.371,378.06 372.059,377.585 367.167,377.584"
           id="SVGID_1_" /></defs><use
         height="100%"
         width="100%"
         y="0"
         x="0"
         id="use8"
         style="overflow:visible;fill:#cccccc"
         xlink:href="#SVGID_1_" /><clipPath
         id="SVGID_2_"><use
           height="100%"
           width="100%"
           y="0"
           x="0"
           id="use11"
           style="overflow:visible"
           xlink:href="#SVGID_1_" /></clipPath><g
         clip-path="url(#SVGID_2_)"
         id="g13"
         style="fill:#cccccc"><polyline
           id="polyline15"
           points="309.766,443.057 310.508,443.647 309.766,443.647 309.766,443.057   "
           style="fill:#cccccc" /><polyline
           id="polyline17"
           points="309.766,440.555 313.653,443.647 310.487,443.647 309.766,443.074 309.766,440.555   "
           style="fill:#cccccc" /><polyline
           id="polyline19"
           points="309.766,438.037 316.819,443.647 313.653,443.647 309.766,440.555 309.766,438.037   "
           style="fill:#cccccc" /><polyline
           id="polyline21"
           points="309.766,435.519 319.985,443.647 316.819,443.647 309.766,438.037 309.766,435.519   "
           style="fill:#cccccc" /><polyline
           id="polyline23"
           points="309.766,433 323.151,443.647 319.985,443.647 309.766,435.519 309.766,433   "
           style="fill:#cccccc" /><polyline
           id="polyline25"
           points="309.766,430.482 326.318,443.647 323.151,443.647 309.766,433 309.766,430.482   "
           style="fill:#cccccc" /><polyline
           id="polyline27"
           points="309.766,427.963 329.484,443.647 326.318,443.647 309.766,430.482 309.766,427.963   "
           style="fill:#cccccc" /><polyline
           id="polyline29"
           points="309.766,425.445 332.65,443.647 329.484,443.647 309.766,427.963 309.766,425.445   "
           style="fill:#cccccc" /><polyline
           id="polyline31"
           points="309.766,422.927 335.817,443.647 332.65,443.647 309.766,425.445 309.766,422.927   "
           style="fill:#cccccc" /><polyline
           id="polyline33"
           points="309.766,420.408 338.983,443.647 335.817,443.647 309.766,422.927 309.766,420.408   "
           style="fill:#cccccc" /><polyline
           id="polyline35"
           points="309.766,417.89 342.149,443.647 338.983,443.647 309.766,420.408 309.766,417.89   "
           style="fill:#cccccc" /><polyline
           id="polyline37"
           points="309.766,415.372 345.315,443.647 342.149,443.647 309.766,417.89 309.766,415.372   "
           style="fill:#cccccc" /><polyline
           id="polyline39"
           points="309.766,412.853 348.481,443.647 345.315,443.647 309.766,415.372 309.766,412.853   "
           style="fill:#cccccc" /><polyline
           id="polyline41"
           points="309.766,410.334 351.648,443.647 348.481,443.647 309.766,412.853 309.766,410.334   "
           style="fill:#cccccc" /><polyline
           id="polyline43"
           points="309.766,407.816 354.814,443.647 351.648,443.647 309.766,410.334 309.766,407.816   "
           style="fill:#cccccc" /><polyline
           id="polyline45"
           points="309.766,405.298 357.98,443.647 354.814,443.647 309.766,407.816 309.766,405.298   "
           style="fill:#cccccc" /><polyline
           id="polyline47"
           points="309.766,402.78 361.146,443.647 357.98,443.647 309.766,405.298 309.766,402.78   "
           style="fill:#cccccc" /><polyline
           id="polyline49"
           points="309.766,400.261 364.313,443.647 361.146,443.647 309.766,402.78 309.766,400.261   "
           style="fill:#cccccc" /><polyline
           id="polyline51"
           points="309.766,397.743 367.479,443.647 364.313,443.647 309.766,400.261 309.766,397.743   "
           style="fill:#cccccc" /><polyline
           id="polyline53"
           points="309.766,395.225 370.645,443.647 367.479,443.647 309.766,397.743 309.766,395.225   "
           style="fill:#cccccc" /><polyline
           id="polyline55"
           points="309.766,392.706 373.812,443.647 370.645,443.647 309.766,395.225 309.766,392.706   "
           style="fill:#cccccc" /><polyline
           id="polyline57"
           points="309.766,390.188 376.978,443.647 373.812,443.647 309.766,392.706 309.766,390.188   "
           style="fill:#cccccc" /><polyline
           id="polyline59"
           points="309.766,387.669 380.144,443.647 376.978,443.647 309.766,390.188 309.766,387.669   "
           style="fill:#cccccc" /><polyline
           id="polyline61"
           points="309.766,385.151 383.131,443.505 383.131,443.647 380.144,443.647 309.766,387.669 309.766,385.151   "
           style="fill:#cccccc" /><polyline
           id="polyline63"
           points="309.766,382.633 383.131,440.986 383.131,443.505 309.766,385.151 309.766,382.633   "
           style="fill:#cccccc" /><polyline
           id="polyline65"
           points="309.766,380.114 383.131,438.468 383.131,440.986 309.766,382.633 309.766,380.114   "
           style="fill:#cccccc" /><polyline
           id="polyline67"
           points="309.766,377.596 383.131,435.95 383.131,438.468 309.766,380.114 309.766,377.596   "
           style="fill:#cccccc" /><polyline
           id="polyline69"
           points="312.918,377.584 383.131,433.431 383.131,435.95 309.766,377.596 309.766,377.584 312.918,377.584   "
           style="fill:#cccccc" /><polyline
           id="polyline71"
           points="316.084,377.584 383.131,430.913 383.131,433.431 312.918,377.584 316.084,377.584   "
           style="fill:#cccccc" /><polyline
           id="polyline73"
           points="319.25,377.584 383.131,428.395 383.131,430.913 316.084,377.584 319.25,377.584   "
           style="fill:#cccccc" /><polyline
           id="polyline75"
           points="322.417,377.584 383.131,425.876 383.131,428.395 319.25,377.584 322.417,377.584   "
           style="fill:#cccccc" /><polyline
           id="polyline77"
           points="325.583,377.584 383.131,423.358 383.131,425.876 322.417,377.584 325.583,377.584   "
           style="fill:#cccccc" /><polyline
           id="polyline79"
           points="328.749,377.584 383.131,420.84 383.131,423.358 325.583,377.584 328.749,377.584   "
           style="fill:#cccccc" /><polyline
           id="polyline81"
           points="331.916,377.584 383.131,418.321 383.131,420.84 328.749,377.584 331.916,377.584   "
           style="fill:#cccccc" /><polyline
           id="polyline83"
           points="335.082,377.584 383.131,415.803 383.131,418.321 331.916,377.584 335.082,377.584   "
           style="fill:#cccccc" /><polyline
           id="polyline85"
           points="338.248,377.584 383.131,413.284 383.131,415.803 335.082,377.584 338.248,377.584   "
           style="fill:#cccccc" /><polyline
           id="polyline87"
           points="341.414,377.584 383.131,410.766 383.131,413.284 338.248,377.584 341.414,377.584   "
           style="fill:#cccccc" /><polyline
           id="polyline89"
           points="344.58,377.584 383.131,408.248 383.131,410.766 341.414,377.584 344.58,377.584   "
           style="fill:#cccccc" /><polyline
           id="polyline91"
           points="347.747,377.584 383.131,405.729 383.131,408.248 344.58,377.584 347.747,377.584   "
           style="fill:#cccccc" /><polyline
           id="polyline93"
           points="350.913,377.584 383.131,403.21 383.131,405.729 347.747,377.584 350.913,377.584   "
           style="fill:#cccccc" /><polyline
           id="polyline95"
           points="354.079,377.584 383.131,400.692 383.131,403.21 350.913,377.584 354.079,377.584   "
           style="fill:#cccccc" /><polyline
           id="polyline97"
           points="357.246,377.584 383.131,398.174 383.131,400.692 354.079,377.584 357.246,377.584   "
           style="fill:#cccccc" /><polyline
           id="polyline99"
           points="360.412,377.584 383.131,395.656 383.131,398.174 357.246,377.584 360.412,377.584   "
           style="fill:#cccccc" /><polyline
           id="polyline101"
           points="363.578,377.584 383.131,393.137 383.131,395.656 360.412,377.584 363.578,377.584   "
           style="fill:#cccccc" /><polyline
           id="polyline103"
           points="366.744,377.584 383.131,390.619 383.131,393.137 363.578,377.584 366.744,377.584   "
           style="fill:#cccccc" /><polyline
           id="polyline105"
           points="369.91,377.584 383.131,388.101 383.131,390.619 366.744,377.584 369.91,377.584   "
           style="fill:#cccccc" /><polyline
           id="polyline107"
           points="373.076,377.584 383.131,385.582 383.131,388.101 369.91,377.584 373.076,377.584   "
           style="fill:#cccccc" /><polyline
           id="polyline109"
           points="376.243,377.584 383.131,383.063 383.131,385.582 373.076,377.584 376.243,377.584   "
           style="fill:#cccccc" /><polyline
           id="polyline111"
           points="379.409,377.584 383.131,380.545 383.131,383.063 376.243,377.584 379.409,377.584   "
           style="fill:#cccccc" /><polyline
           id="polyline113"
           points="381.274,377.584 383.131,379.062 383.131,380.545 379.409,377.584 381.274,377.584   "
           style="fill:#cccccc" /><polyline
           id="polyline115"
           points="383.131,379.062 381.273,377.584 383.131,377.584 383.131,379.062   "
           style="fill:#cccccc" /></g></g><g
       transform="matrix(0.4035345,0,0,0.4035345,25.707434,-558.45113)"
       id="g117"
       style="fill:#cccccc"><defs
         id="defs119"><path
           inkscape:connector-curvature="0"
           d="M 232.623,401.13 C 228.657,401.13 224.348,401.515 219.677,402.348 232.824,411.556 224.68,454.657 268.753,454.657 271.01,454.657 273.408,454.543 275.948,454.307 L 279.122,453.677 C 279.121,453.677 279.027,401.126 232.623,401.13"
           id="SVGID_3_" /></defs><use
         height="100%"
         width="100%"
         y="0"
         x="0"
         id="use122"
         style="overflow:visible;fill:#cccccc"
         xlink:href="#SVGID_3_" /><clipPath
         id="SVGID_4_"><use
           height="100%"
           width="100%"
           y="0"
           x="0"
           id="use125"
           style="overflow:visible"
           xlink:href="#SVGID_3_" /></clipPath><g
         clip-path="url(#SVGID_4_)"
         id="g127"
         style="fill:#cccccc"><polyline
           id="polyline129"
           points="278.537,454.657 279.121,454.193 279.121,454.657 278.537,454.657   "
           style="fill:#cccccc" /><polyline
           id="polyline131"
           points="275.967,454.657 279.121,452.149 279.121,454.189 278.533,454.657 275.967,454.657   "
           style="fill:#cccccc" /><polyline
           id="polyline133"
           points="273.402,454.657 279.121,450.108 279.121,452.149 275.967,454.657 273.402,454.657   "
           style="fill:#cccccc" /><polyline
           id="polyline135"
           points="270.836,454.657 279.121,448.068 279.121,450.108 273.402,454.657 270.836,454.657   "
           style="fill:#cccccc" /><polyline
           id="polyline137"
           points="268.271,454.657 279.121,446.027 279.121,448.068 270.836,454.657 268.271,454.657   "
           style="fill:#cccccc" /><polyline
           id="polyline139"
           points="265.706,454.657 279.121,443.987 279.121,446.027 268.271,454.657 265.706,454.657   "
           style="fill:#cccccc" /><polyline
           id="polyline141"
           points="263.14,454.657 279.121,441.946 279.121,443.987 265.706,454.657 263.14,454.657   "
           style="fill:#cccccc" /><polyline
           id="polyline143"
           points="260.574,454.657 279.121,439.905 279.121,441.946 263.14,454.657 260.574,454.657   "
           style="fill:#cccccc" /><polyline
           id="polyline145"
           points="258.01,454.657 279.121,437.865 279.121,439.905 260.574,454.657 258.01,454.657   "
           style="fill:#cccccc" /><polyline
           id="polyline147"
           points="255.444,454.657 279.121,435.825 279.121,437.865 258.01,454.657 255.444,454.657   "
           style="fill:#cccccc" /><polyline
           id="polyline149"
           points="252.878,454.657 279.121,433.784 279.121,435.825 255.444,454.657 252.878,454.657   "
           style="fill:#cccccc" /><polyline
           id="polyline151"
           points="250.313,454.657 279.121,431.744 279.121,433.784 252.878,454.657 250.313,454.657   "
           style="fill:#cccccc" /><polyline
           id="polyline153"
           points="247.748,454.657 279.121,429.703 279.121,431.744 250.313,454.657 247.748,454.657   "
           style="fill:#cccccc" /><polyline
           id="polyline155"
           points="245.182,454.657 279.121,427.663 279.121,429.703 247.748,454.657 245.182,454.657   "
           style="fill:#cccccc" /><polyline
           id="polyline157"
           points="242.617,454.657 279.121,425.622 279.121,427.663 245.182,454.657 242.617,454.657   "
           style="fill:#cccccc" /><polyline
           id="polyline159"
           points="240.051,454.657 279.121,423.582 279.121,425.622 242.617,454.657 240.051,454.657   "
           style="fill:#cccccc" /><polyline
           id="polyline161"
           points="237.485,454.657 279.121,421.541 279.121,423.582 240.051,454.657 237.485,454.657   "
           style="fill:#cccccc" /><polyline
           id="polyline163"
           points="234.92,454.657 279.121,419.5 279.121,421.541 237.485,454.657 234.92,454.657   "
           style="fill:#cccccc" /><polyline
           id="polyline165"
           points="232.354,454.657 279.121,417.459 279.121,419.5 234.92,454.657 232.354,454.657   "
           style="fill:#cccccc" /><polyline
           id="polyline167"
           points="229.789,454.657 279.121,415.419 279.121,417.459 232.354,454.657 229.789,454.657   "
           style="fill:#cccccc" /><polyline
           id="polyline169"
           points="227.224,454.657 279.121,413.379 279.121,415.419 229.789,454.657 227.224,454.657   "
           style="fill:#cccccc" /><polyline
           id="polyline171"
           points="224.658,454.657 279.121,411.338 279.121,413.379 227.224,454.657 224.658,454.657   "
           style="fill:#cccccc" /><polyline
           id="polyline173"
           points="222.092,454.657 279.121,409.297 279.121,411.338 224.658,454.657 222.092,454.657   "
           style="fill:#cccccc" /><polyline
           id="polyline175"
           points="219.676,454.539 279.121,407.257 279.121,409.297 222.092,454.657 219.676,454.657 219.676,454.539   "
           style="fill:#cccccc" /><polyline
           id="polyline177"
           points="219.676,452.499 279.121,405.216 279.121,407.257 219.676,454.539 219.676,452.499   "
           style="fill:#cccccc" /><polyline
           id="polyline179"
           points="219.676,450.458 279.121,403.176 279.121,405.216 219.676,452.499 219.676,450.458   "
           style="fill:#cccccc" /><polyline
           id="polyline181"
           points="219.676,448.417 279.121,401.135 279.121,403.176 219.676,450.458 219.676,448.417   "
           style="fill:#cccccc" /><polyline
           id="polyline183"
           points="219.676,446.377 276.567,401.126 279.121,401.126 279.121,401.135 219.676,448.417 219.676,446.377   "
           style="fill:#cccccc" /><polyline
           id="polyline185"
           points="219.676,444.336 274.001,401.126 276.567,401.126 219.676,446.377 219.676,444.336   "
           style="fill:#cccccc" /><polyline
           id="polyline187"
           points="219.676,442.295 271.436,401.126 274.001,401.126 219.676,444.336 219.676,442.295   "
           style="fill:#cccccc" /><polyline
           id="polyline189"
           points="219.676,440.255 268.871,401.126 271.436,401.126 219.676,442.295 219.676,440.255   "
           style="fill:#cccccc" /><polyline
           id="polyline191"
           points="219.676,438.214 266.305,401.126 268.871,401.126 219.676,440.255 219.676,438.214   "
           style="fill:#cccccc" /><polyline
           id="polyline193"
           points="219.676,436.174 263.739,401.126 266.305,401.126 219.676,438.214 219.676,436.174   "
           style="fill:#cccccc" /><polyline
           id="polyline195"
           points="219.676,434.133 261.174,401.126 263.739,401.126 219.676,436.174 219.676,434.133   "
           style="fill:#cccccc" /><polyline
           id="polyline197"
           points="219.676,432.093 258.608,401.126 261.174,401.126 219.676,434.133 219.676,432.093   "
           style="fill:#cccccc" /><polyline
           id="polyline199"
           points="219.676,430.052 256.043,401.126 258.608,401.126 219.676,432.093 219.676,430.052   "
           style="fill:#cccccc" /><polyline
           id="polyline201"
           points="219.676,428.012 253.478,401.126 256.043,401.126 219.676,430.052 219.676,428.012   "
           style="fill:#cccccc" /><polyline
           id="polyline203"
           points="219.676,425.971 250.912,401.126 253.478,401.126 219.676,428.012 219.676,425.971   "
           style="fill:#cccccc" /><polyline
           id="polyline205"
           points="219.676,423.931 248.347,401.126 250.912,401.126 219.676,425.971 219.676,423.931   "
           style="fill:#cccccc" /><polyline
           id="polyline207"
           points="219.676,421.89 245.781,401.126 248.347,401.126 219.676,423.931 219.676,421.89   "
           style="fill:#cccccc" /><polyline
           id="polyline209"
           points="219.676,419.85 243.216,401.126 245.781,401.126 219.676,421.89 219.676,419.85   "
           style="fill:#cccccc" /><polyline
           id="polyline211"
           points="219.676,417.809 240.65,401.126 243.216,401.126 219.676,419.85 219.676,417.809   "
           style="fill:#cccccc" /><polyline
           id="polyline213"
           points="219.676,415.769 238.085,401.126 240.65,401.126 219.676,417.809 219.676,415.769   "
           style="fill:#cccccc" /><polyline
           id="polyline215"
           points="219.676,413.728 235.52,401.126 238.085,401.126 219.676,415.769 219.676,413.728   "
           style="fill:#cccccc" /><polyline
           id="polyline217"
           points="219.676,411.688 232.954,401.126 235.52,401.126 219.676,413.728 219.676,411.688   "
           style="fill:#cccccc" /><polyline
           id="polyline219"
           points="219.676,409.647 230.389,401.126 232.954,401.126 219.676,411.688 219.676,409.647   "
           style="fill:#cccccc" /><polyline
           id="polyline221"
           points="219.676,407.606 227.823,401.126 230.389,401.126 219.676,409.647 219.676,407.606   "
           style="fill:#cccccc" /><polyline
           id="polyline223"
           points="219.676,405.566 225.258,401.126 227.823,401.126 219.676,407.606 219.676,405.566   "
           style="fill:#cccccc" /><polyline
           id="polyline225"
           points="219.676,403.525 222.692,401.126 225.258,401.126 219.676,405.566 219.676,403.525   "
           style="fill:#cccccc" /><polyline
           id="polyline227"
           points="219.676,402.323 221.181,401.126 222.692,401.126 219.676,403.525 219.676,402.323   "
           style="fill:#cccccc" /><polyline
           id="polyline229"
           points="221.181,401.126 219.676,402.323 219.676,401.126 221.181,401.126   "
           style="fill:#cccccc" /></g></g><path
       inkscape:connector-curvature="0"
       id="path231"
       d="M 176.01556,-424.91955 C 176.41143,-428.53885 175.3126,-431.68884 172.84822,-434.32715 176.294,-435.40378 178.80559,-437.60062 180.24864,-440.9431 182.04275,-445.06884 182.16744,-450.98022 179.87739,-456.64463 177.64987,-462.33406 173.4971,-466.54414 169.35846,-468.30798 166.01355,-469.74537 162.68036,-469.61503 159.43635,-468.02995 159.41334,-471.63996 158.04778,-474.68463 155.27308,-477.04168 151.85232,-479.96327 146.23512,-481.81146 140.14901,-481.27637 134.05725,-480.81029 128.81655,-478.06989 125.91958,-474.62814 123.56697,-471.849 122.71712,-468.62274 123.2845,-465.05711 119.8258,-466.09137 116.5144,-465.67532 113.44996,-463.71092 109.65471,-461.29415 106.24525,-456.46142 104.97735,-450.48548 103.64245,-444.52406 104.73119,-438.71236 107.17499,-434.93366 108.70278,-432.56008 110.74749,-430.96409 113.25424,-430.1316 112.00531,-427.80401 111.61589,-425.23875 112.13806,-422.46445 112.95684,-418.04171 116.15969,-413.06976 121.22647,-409.65667 126.2537,-406.18506 132.05088,-405.01683 136.46837,-405.86788 140.0445,-406.54744 142.73567,-408.5195 144.53866,-411.6473 146.57691,-408.6672 149.41134,-406.90698 153.02983,-406.50466 157.49898,-405.99378 163.19003,-407.60429 167.93639,-411.45078 172.72595,-415.2436 175.53818,-420.44637 176.01556,-424.91955 Z M 140.27007,-429.12317 C 133.07021,-431.36561 129.05222,-439.01905 131.29425,-446.21891 133.53629,-453.41877 141.19054,-457.43757 148.39039,-455.19473 155.58945,-452.95269 159.60906,-445.29885 157.36621,-438.09899 155.12418,-430.89913 147.46993,-426.88032 140.27007,-429.12317 Z"
       style="fill:#cccccc" /><rect
       id="rect233"
       height="38.461678"
       width="2.747263"
       y="-404.4559"
       x="142.85512"
       style="fill:#cccccc" /><path
       inkscape:connector-curvature="0"
       id="path235"
       d="M 109.91177,-353.90636 179.78013,-353.90636 180.34306,-359.46747 C 180.30715,-359.46747 180.25751,-359.46747 180.21232,-359.46747 L 180.34306,-360.75958 109.27136,-360.75958 109.42026,-359.46747 C 109.37184,-359.46747 109.31655,-359.46747 109.27136,-359.46747 L 109.91177,-353.90636 Z"
       style="fill:#cccccc" /><path
       inkscape:connector-curvature="0"
       id="path237"
       d="M 113.65737,-344.56574 124.71382,-302.65949 C 124.71382,-300.98523 125.84371,-299.62895 127.23712,-299.62895 L 164.03139,-299.62895 C 165.42561,-299.62895 166.5555,-300.98523 166.5555,-302.65949 L 176.64952,-344.56574 113.65737,-344.56574 Z"
       style="fill:#cccccc" /></g></svg>